<?xml version="1.0" encoding="utf-8"?>
<!-- Generator: Adobe Illustrator 25.0.1, SVG Export Plug-In . SVG Version: 6.00 Build 0)  -->
<svg version="1.1" id="Layer_1" xmlns="http://www.w3.org/2000/svg" xmlns:xlink="http://www.w3.org/1999/xlink" x="0px" y="0px"
	 viewBox="0 0 196 196" style="enable-background:new 0 0 196 196;" xml:space="preserve">
<style type="text/css">
	.st0{display:none;fill:#00356E;}
	.st1{font-family:'SoftPressW00-Regular';}
	.st2{font-size:133.7899px;}
	.st3{fill:#00356E;}
	.st4{fill:none;}
</style>
<text transform="matrix(1 0 0 1 0 153.4017)" class="st0 st1 st2">IACM</text>
<path id="plane_1_" class="st3" d="M194.1,22.1c-0.3,0-0.7,0-1.2,0C155,23.5,120.5,44.3,101.2,77l-30.4,51.8
	c-0.7,1.2-2.3,1.6-3.4,0.8l-45.2-29.2c-0.9-0.6-2.2-0.5-3,0.2L2.6,115.5c-1,0.9-1.1,2.5-0.2,3.5l47.4,52.9c1,1.1,2.6,1.1,3.6,0
	L194.5,22.9C194.8,22.6,194.6,22.1,194.1,22.1z"/>
<rect y="0" class="st4" width="196" height="196"/>
</svg>
