<?xml version="1.0" encoding="utf-8"?>
<!-- Generator: Adobe Illustrator 25.0.1, SVG Export Plug-In . SVG Version: 6.00 Build 0)  -->
<svg version="1.1" id="Layer_1" xmlns="http://www.w3.org/2000/svg" xmlns:xlink="http://www.w3.org/1999/xlink" x="0px" y="0px"
	 viewBox="0 0 196 81.8" style="enable-background:new 0 0 196 81.8;" xml:space="preserve">
<style type="text/css">
	.st0{fill:#C1C1C1;}
	.st1{fill:#FFFFFF;}
	.st2{font-family:'SoftPressW00-Regular';}
	.st3{font-size:38.5004px;}
</style>
<g>
	<g>
		<g id="bounce">
			<path id="reflection" class="st0" d="M118.5,81.8l44.9-47.5c0.4-0.4,0.4-1,0-1.4l-6.2-6.9c-0.3-0.3-0.8-0.4-1.2-0.2L91.3,65.6
				L118.5,81.8z"/>
			<path id="incidence" class="st1" d="M118.5,81.8h-51L1.1,12.3c-0.2-0.2,0.1-0.5,0.3-0.3L118.5,81.8z"/>
		</g>
		<path id="plane" class="st1" d="M196,0c0,0-0.2,0-0.5,0c-7.8,0.3-15,4.6-18.9,11.4l-6.1,10.3c-0.2,0.4-0.8,0.6-1.2,0.3l-8.5-5.5
			c-0.5-0.3-1.1-0.3-1.5,0.1l-2.5,2.3c-0.5,0.4-0.5,1.1-0.1,1.6l9,10.1c0.4,0.4,1,0.4,1.4,0L196,0z"/>
	</g>
	<text transform="matrix(1 0 0 1 139.5977 81.0343)" class="st1 st2 st3">IACM</text>
</g>
</svg>
